<mxfile host="app.diagrams.net" agent="Mozilla/5.0 (Macintosh; Intel Mac OS X 10_15_7) AppleWebKit/605.1.15 (KHTML, like Gecko) Version/18.4 Safari/605.1.15" version="27.0.3">
  <diagram name="Pagina-1" id="SnkwaN0tQogU3lnAb-OZ">
    <mxGraphModel dx="1803" dy="672" grid="1" gridSize="10" guides="1" tooltips="1" connect="1" arrows="1" fold="1" page="1" pageScale="1" pageWidth="827" pageHeight="1169" math="0" shadow="0">
      <root>
        <mxCell id="0" />
        <mxCell id="1" parent="0" />
        <mxCell id="CWl69X-RW4L_jbVbcyJP-1" value="Airlines" style="swimlane;fontStyle=0;childLayout=stackLayout;horizontal=1;startSize=30;horizontalStack=0;resizeParent=1;resizeParentMax=0;resizeLast=0;collapsible=1;marginBottom=0;whiteSpace=wrap;html=1;" parent="1" vertex="1">
          <mxGeometry x="-180" y="235" width="190" height="150" as="geometry" />
        </mxCell>
        <mxCell id="CWl69X-RW4L_jbVbcyJP-2" value="name:String(255) &amp;lt;PK&amp;gt;" style="text;strokeColor=none;fillColor=none;align=left;verticalAlign=middle;spacingLeft=4;spacingRight=4;overflow=hidden;points=[[0,0.5],[1,0.5]];portConstraint=eastwest;rotatable=0;whiteSpace=wrap;html=1;" parent="CWl69X-RW4L_jbVbcyJP-1" vertex="1">
          <mxGeometry y="30" width="190" height="30" as="geometry" />
        </mxCell>
        <mxCell id="CWl69X-RW4L_jbVbcyJP-3" value="password:String(255)" style="text;strokeColor=none;fillColor=none;align=left;verticalAlign=middle;spacingLeft=4;spacingRight=4;overflow=hidden;points=[[0,0.5],[1,0.5]];portConstraint=eastwest;rotatable=0;whiteSpace=wrap;html=1;" parent="CWl69X-RW4L_jbVbcyJP-1" vertex="1">
          <mxGeometry y="60" width="190" height="30" as="geometry" />
        </mxCell>
        <mxCell id="CWl69X-RW4L_jbVbcyJP-4" value="country:String(100)" style="text;strokeColor=none;fillColor=none;align=left;verticalAlign=middle;spacingLeft=4;spacingRight=4;overflow=hidden;points=[[0,0.5],[1,0.5]];portConstraint=eastwest;rotatable=0;whiteSpace=wrap;html=1;" parent="CWl69X-RW4L_jbVbcyJP-1" vertex="1">
          <mxGeometry y="90" width="190" height="30" as="geometry" />
        </mxCell>
        <mxCell id="CWl69X-RW4L_jbVbcyJP-92" value="motto:String(300)" style="text;strokeColor=none;fillColor=none;align=left;verticalAlign=middle;spacingLeft=4;spacingRight=4;overflow=hidden;points=[[0,0.5],[1,0.5]];portConstraint=eastwest;rotatable=0;whiteSpace=wrap;html=1;" parent="CWl69X-RW4L_jbVbcyJP-1" vertex="1">
          <mxGeometry y="120" width="190" height="30" as="geometry" />
        </mxCell>
        <mxCell id="CWl69X-RW4L_jbVbcyJP-5" value="Routes" style="swimlane;fontStyle=0;childLayout=stackLayout;horizontal=1;startSize=30;horizontalStack=0;resizeParent=1;resizeParentMax=0;resizeLast=0;collapsible=1;marginBottom=0;whiteSpace=wrap;html=1;" parent="1" vertex="1">
          <mxGeometry x="414" y="250" width="156" height="90" as="geometry" />
        </mxCell>
        <mxCell id="CWl69X-RW4L_jbVbcyJP-7" value="departure:int&amp;lt;FK&amp;gt; &amp;lt;PK&amp;gt;" style="text;strokeColor=none;fillColor=none;align=left;verticalAlign=middle;spacingLeft=4;spacingRight=4;overflow=hidden;points=[[0,0.5],[1,0.5]];portConstraint=eastwest;rotatable=0;whiteSpace=wrap;html=1;" parent="CWl69X-RW4L_jbVbcyJP-5" vertex="1">
          <mxGeometry y="30" width="156" height="30" as="geometry" />
        </mxCell>
        <mxCell id="CWl69X-RW4L_jbVbcyJP-8" value="destination:int&amp;lt;FK&amp;gt; &amp;lt;PK&amp;gt;" style="text;strokeColor=none;fillColor=none;align=left;verticalAlign=middle;spacingLeft=4;spacingRight=4;overflow=hidden;points=[[0,0.5],[1,0.5]];portConstraint=eastwest;rotatable=0;whiteSpace=wrap;html=1;" parent="CWl69X-RW4L_jbVbcyJP-5" vertex="1">
          <mxGeometry y="60" width="156" height="30" as="geometry" />
        </mxCell>
        <mxCell id="CWl69X-RW4L_jbVbcyJP-9" value="Users" style="swimlane;fontStyle=0;childLayout=stackLayout;horizontal=1;startSize=30;horizontalStack=0;resizeParent=1;resizeParentMax=0;resizeLast=0;collapsible=1;marginBottom=0;whiteSpace=wrap;html=1;" parent="1" vertex="1">
          <mxGeometry x="1670" y="250" width="140" height="180" as="geometry" />
        </mxCell>
        <mxCell id="CWl69X-RW4L_jbVbcyJP-10" value="id:int &amp;lt;PK&amp;gt;" style="text;strokeColor=none;fillColor=none;align=left;verticalAlign=middle;spacingLeft=4;spacingRight=4;overflow=hidden;points=[[0,0.5],[1,0.5]];portConstraint=eastwest;rotatable=0;whiteSpace=wrap;html=1;" parent="CWl69X-RW4L_jbVbcyJP-9" vertex="1">
          <mxGeometry y="30" width="140" height="30" as="geometry" />
        </mxCell>
        <mxCell id="CWl69X-RW4L_jbVbcyJP-11" value="name:String(255)" style="text;strokeColor=none;fillColor=none;align=left;verticalAlign=middle;spacingLeft=4;spacingRight=4;overflow=hidden;points=[[0,0.5],[1,0.5]];portConstraint=eastwest;rotatable=0;whiteSpace=wrap;html=1;" parent="CWl69X-RW4L_jbVbcyJP-9" vertex="1">
          <mxGeometry y="60" width="140" height="30" as="geometry" />
        </mxCell>
        <mxCell id="I97rUNE9fbDE2aKJuluB-2" value="email:String(255)" style="text;strokeColor=none;fillColor=none;align=left;verticalAlign=middle;spacingLeft=4;spacingRight=4;overflow=hidden;points=[[0,0.5],[1,0.5]];portConstraint=eastwest;rotatable=0;whiteSpace=wrap;html=1;" parent="CWl69X-RW4L_jbVbcyJP-9" vertex="1">
          <mxGeometry y="90" width="140" height="30" as="geometry" />
        </mxCell>
        <mxCell id="CWl69X-RW4L_jbVbcyJP-12" value="password:String(255)" style="text;strokeColor=none;fillColor=none;align=left;verticalAlign=middle;spacingLeft=4;spacingRight=4;overflow=hidden;points=[[0,0.5],[1,0.5]];portConstraint=eastwest;rotatable=0;whiteSpace=wrap;html=1;" parent="CWl69X-RW4L_jbVbcyJP-9" vertex="1">
          <mxGeometry y="120" width="140" height="30" as="geometry" />
        </mxCell>
        <mxCell id="CWl69X-RW4L_jbVbcyJP-42" value="role:int" style="text;strokeColor=none;fillColor=none;align=left;verticalAlign=middle;spacingLeft=4;spacingRight=4;overflow=hidden;points=[[0,0.5],[1,0.5]];portConstraint=eastwest;rotatable=0;whiteSpace=wrap;html=1;" parent="CWl69X-RW4L_jbVbcyJP-9" vertex="1">
          <mxGeometry y="150" width="140" height="30" as="geometry" />
        </mxCell>
        <mxCell id="CWl69X-RW4L_jbVbcyJP-13" value="Tickets" style="swimlane;fontStyle=0;childLayout=stackLayout;horizontal=1;startSize=30;horizontalStack=0;resizeParent=1;resizeParentMax=0;resizeLast=0;collapsible=1;marginBottom=0;whiteSpace=wrap;html=1;" parent="1" vertex="1">
          <mxGeometry x="880" y="160" width="170" height="150" as="geometry" />
        </mxCell>
        <mxCell id="CWl69X-RW4L_jbVbcyJP-14" value="code:String(255) &amp;lt;PK&amp;gt;" style="text;strokeColor=none;fillColor=none;align=left;verticalAlign=middle;spacingLeft=4;spacingRight=4;overflow=hidden;points=[[0,0.5],[1,0.5]];portConstraint=eastwest;rotatable=0;whiteSpace=wrap;html=1;" parent="CWl69X-RW4L_jbVbcyJP-13" vertex="1">
          <mxGeometry y="30" width="170" height="30" as="geometry" />
        </mxCell>
        <mxCell id="CWl69X-RW4L_jbVbcyJP-50" value="type:String(50)" style="text;strokeColor=none;fillColor=none;align=left;verticalAlign=middle;spacingLeft=4;spacingRight=4;overflow=hidden;points=[[0,0.5],[1,0.5]];portConstraint=eastwest;rotatable=0;whiteSpace=wrap;html=1;" parent="CWl69X-RW4L_jbVbcyJP-13" vertex="1">
          <mxGeometry y="60" width="170" height="30" as="geometry" />
        </mxCell>
        <mxCell id="CWl69X-RW4L_jbVbcyJP-16" value="price:double" style="text;strokeColor=none;fillColor=none;align=left;verticalAlign=middle;spacingLeft=4;spacingRight=4;overflow=hidden;points=[[0,0.5],[1,0.5]];portConstraint=eastwest;rotatable=0;whiteSpace=wrap;html=1;" parent="CWl69X-RW4L_jbVbcyJP-13" vertex="1">
          <mxGeometry y="90" width="170" height="30" as="geometry" />
        </mxCell>
        <mxCell id="CWl69X-RW4L_jbVbcyJP-15" value="fligh_code:UUID &amp;lt;FK&amp;gt;" style="text;strokeColor=none;fillColor=none;align=left;verticalAlign=middle;spacingLeft=4;spacingRight=4;overflow=hidden;points=[[0,0.5],[1,0.5]];portConstraint=eastwest;rotatable=0;whiteSpace=wrap;html=1;" parent="CWl69X-RW4L_jbVbcyJP-13" vertex="1">
          <mxGeometry y="120" width="170" height="30" as="geometry" />
        </mxCell>
        <mxCell id="CWl69X-RW4L_jbVbcyJP-17" value="Airports" style="swimlane;fontStyle=0;childLayout=stackLayout;horizontal=1;startSize=30;horizontalStack=0;resizeParent=1;resizeParentMax=0;resizeLast=0;collapsible=1;marginBottom=0;whiteSpace=wrap;html=1;" parent="1" vertex="1">
          <mxGeometry x="420" y="20" width="140" height="190" as="geometry" />
        </mxCell>
        <mxCell id="CWl69X-RW4L_jbVbcyJP-18" value="id: int &amp;lt;PK&amp;gt;" style="text;strokeColor=none;fillColor=none;align=left;verticalAlign=middle;spacingLeft=4;spacingRight=4;overflow=hidden;points=[[0,0.5],[1,0.5]];portConstraint=eastwest;rotatable=0;whiteSpace=wrap;html=1;" parent="CWl69X-RW4L_jbVbcyJP-17" vertex="1">
          <mxGeometry y="30" width="140" height="40" as="geometry" />
        </mxCell>
        <mxCell id="CWl69X-RW4L_jbVbcyJP-19" value="city:String(255)" style="text;strokeColor=none;fillColor=none;align=left;verticalAlign=middle;spacingLeft=4;spacingRight=4;overflow=hidden;points=[[0,0.5],[1,0.5]];portConstraint=eastwest;rotatable=0;whiteSpace=wrap;html=1;" parent="CWl69X-RW4L_jbVbcyJP-17" vertex="1">
          <mxGeometry y="70" width="140" height="30" as="geometry" />
        </mxCell>
        <mxCell id="CWl69X-RW4L_jbVbcyJP-20" value="name:String(100)" style="text;strokeColor=none;fillColor=none;align=left;verticalAlign=middle;spacingLeft=4;spacingRight=4;overflow=hidden;points=[[0,0.5],[1,0.5]];portConstraint=eastwest;rotatable=0;whiteSpace=wrap;html=1;" parent="CWl69X-RW4L_jbVbcyJP-17" vertex="1">
          <mxGeometry y="100" width="140" height="30" as="geometry" />
        </mxCell>
        <mxCell id="umwa_j6ilt4zhMHuV3hs-1" value="time_zone:int" style="text;strokeColor=none;fillColor=none;align=left;verticalAlign=middle;spacingLeft=4;spacingRight=4;overflow=hidden;points=[[0,0.5],[1,0.5]];portConstraint=eastwest;rotatable=0;whiteSpace=wrap;html=1;" parent="CWl69X-RW4L_jbVbcyJP-17" vertex="1">
          <mxGeometry y="130" width="140" height="30" as="geometry" />
        </mxCell>
        <mxCell id="I97rUNE9fbDE2aKJuluB-1" value="country:String(100)" style="text;strokeColor=none;fillColor=none;align=left;verticalAlign=middle;spacingLeft=4;spacingRight=4;overflow=hidden;points=[[0,0.5],[1,0.5]];portConstraint=eastwest;rotatable=0;whiteSpace=wrap;html=1;" parent="CWl69X-RW4L_jbVbcyJP-17" vertex="1">
          <mxGeometry y="160" width="140" height="30" as="geometry" />
        </mxCell>
        <mxCell id="CWl69X-RW4L_jbVbcyJP-21" value="Flights" style="swimlane;fontStyle=0;childLayout=stackLayout;horizontal=1;startSize=30;horizontalStack=0;resizeParent=1;resizeParentMax=0;resizeLast=0;collapsible=1;marginBottom=0;whiteSpace=wrap;html=1;" parent="1" vertex="1">
          <mxGeometry x="690" y="235" width="150" height="210" as="geometry" />
        </mxCell>
        <mxCell id="CWl69X-RW4L_jbVbcyJP-22" value="code:UUID&amp;lt;PK&amp;gt;" style="text;strokeColor=none;fillColor=none;align=left;verticalAlign=middle;spacingLeft=4;spacingRight=4;overflow=hidden;points=[[0,0.5],[1,0.5]];portConstraint=eastwest;rotatable=0;whiteSpace=wrap;html=1;" parent="CWl69X-RW4L_jbVbcyJP-21" vertex="1">
          <mxGeometry y="30" width="150" height="30" as="geometry" />
        </mxCell>
        <mxCell id="CWl69X-RW4L_jbVbcyJP-23" value="liftoff_date:date" style="text;strokeColor=none;fillColor=none;align=left;verticalAlign=middle;spacingLeft=4;spacingRight=4;overflow=hidden;points=[[0,0.5],[1,0.5]];portConstraint=eastwest;rotatable=0;whiteSpace=wrap;html=1;" parent="CWl69X-RW4L_jbVbcyJP-21" vertex="1">
          <mxGeometry y="60" width="150" height="30" as="geometry" />
        </mxCell>
        <mxCell id="CWl69X-RW4L_jbVbcyJP-47" value="duration:int" style="text;strokeColor=none;fillColor=none;align=left;verticalAlign=middle;spacingLeft=4;spacingRight=4;overflow=hidden;points=[[0,0.5],[1,0.5]];portConstraint=eastwest;rotatable=0;whiteSpace=wrap;html=1;" parent="CWl69X-RW4L_jbVbcyJP-21" vertex="1">
          <mxGeometry y="90" width="150" height="30" as="geometry" />
        </mxCell>
        <mxCell id="I97rUNE9fbDE2aKJuluB-5" value="route_departure:int&amp;lt;FK&amp;gt;" style="text;strokeColor=none;fillColor=none;align=left;verticalAlign=middle;spacingLeft=4;spacingRight=4;overflow=hidden;points=[[0,0.5],[1,0.5]];portConstraint=eastwest;rotatable=0;whiteSpace=wrap;html=1;" parent="CWl69X-RW4L_jbVbcyJP-21" vertex="1">
          <mxGeometry y="120" width="150" height="30" as="geometry" />
        </mxCell>
        <mxCell id="CWl69X-RW4L_jbVbcyJP-24" value="route_destination:int&amp;lt;FK&amp;gt;" style="text;strokeColor=none;fillColor=none;align=left;verticalAlign=middle;spacingLeft=4;spacingRight=4;overflow=hidden;points=[[0,0.5],[1,0.5]];portConstraint=eastwest;rotatable=0;whiteSpace=wrap;html=1;" parent="CWl69X-RW4L_jbVbcyJP-21" vertex="1">
          <mxGeometry y="150" width="150" height="30" as="geometry" />
        </mxCell>
        <mxCell id="CWl69X-RW4L_jbVbcyJP-58" value="aircraft_id:int&amp;lt;FK&amp;gt;" style="text;strokeColor=none;fillColor=none;align=left;verticalAlign=middle;spacingLeft=4;spacingRight=4;overflow=hidden;points=[[0,0.5],[1,0.5]];portConstraint=eastwest;rotatable=0;whiteSpace=wrap;html=1;" parent="CWl69X-RW4L_jbVbcyJP-21" vertex="1">
          <mxGeometry y="180" width="150" height="30" as="geometry" />
        </mxCell>
        <mxCell id="CWl69X-RW4L_jbVbcyJP-25" value="Trips" style="swimlane;fontStyle=0;childLayout=stackLayout;horizontal=1;startSize=30;horizontalStack=0;resizeParent=1;resizeParentMax=0;resizeLast=0;collapsible=1;marginBottom=0;whiteSpace=wrap;html=1;" parent="1" vertex="1">
          <mxGeometry x="1400" y="475" width="140" height="120" as="geometry" />
        </mxCell>
        <mxCell id="CWl69X-RW4L_jbVbcyJP-26" value="id:int &amp;lt;PK&amp;gt;" style="text;strokeColor=none;fillColor=none;align=left;verticalAlign=middle;spacingLeft=4;spacingRight=4;overflow=hidden;points=[[0,0.5],[1,0.5]];portConstraint=eastwest;rotatable=0;whiteSpace=wrap;html=1;" parent="CWl69X-RW4L_jbVbcyJP-25" vertex="1">
          <mxGeometry y="30" width="140" height="30" as="geometry" />
        </mxCell>
        <mxCell id="CWl69X-RW4L_jbVbcyJP-27" value="creation_date:date" style="text;strokeColor=none;fillColor=none;align=left;verticalAlign=middle;spacingLeft=4;spacingRight=4;overflow=hidden;points=[[0,0.5],[1,0.5]];portConstraint=eastwest;rotatable=0;whiteSpace=wrap;html=1;" parent="CWl69X-RW4L_jbVbcyJP-25" vertex="1">
          <mxGeometry y="60" width="140" height="30" as="geometry" />
        </mxCell>
        <mxCell id="CWl69X-RW4L_jbVbcyJP-79" value="user_id:int &amp;lt;FK&amp;gt;" style="text;strokeColor=none;fillColor=none;align=left;verticalAlign=middle;spacingLeft=4;spacingRight=4;overflow=hidden;points=[[0,0.5],[1,0.5]];portConstraint=eastwest;rotatable=0;whiteSpace=wrap;html=1;" parent="CWl69X-RW4L_jbVbcyJP-25" vertex="1">
          <mxGeometry y="90" width="140" height="30" as="geometry" />
        </mxCell>
        <mxCell id="CWl69X-RW4L_jbVbcyJP-29" value="Seats" style="swimlane;fontStyle=0;childLayout=stackLayout;horizontal=1;startSize=30;horizontalStack=0;resizeParent=1;resizeParentMax=0;resizeLast=0;collapsible=1;marginBottom=0;whiteSpace=wrap;html=1;" parent="1" vertex="1">
          <mxGeometry x="560" y="600" width="140" height="120" as="geometry" />
        </mxCell>
        <mxCell id="CWl69X-RW4L_jbVbcyJP-30" value="id:int &amp;lt;PK&amp;gt;" style="text;strokeColor=none;fillColor=none;align=left;verticalAlign=middle;spacingLeft=4;spacingRight=4;overflow=hidden;points=[[0,0.5],[1,0.5]];portConstraint=eastwest;rotatable=0;whiteSpace=wrap;html=1;" parent="CWl69X-RW4L_jbVbcyJP-29" vertex="1">
          <mxGeometry y="30" width="140" height="30" as="geometry" />
        </mxCell>
        <mxCell id="CWl69X-RW4L_jbVbcyJP-31" value="position:String(4)" style="text;strokeColor=none;fillColor=none;align=left;verticalAlign=middle;spacingLeft=4;spacingRight=4;overflow=hidden;points=[[0,0.5],[1,0.5]];portConstraint=eastwest;rotatable=0;whiteSpace=wrap;html=1;" parent="CWl69X-RW4L_jbVbcyJP-29" vertex="1">
          <mxGeometry y="60" width="140" height="30" as="geometry" />
        </mxCell>
        <mxCell id="CWl69X-RW4L_jbVbcyJP-32" value="aircraft_id:int &amp;lt;FK&amp;gt;" style="text;strokeColor=none;fillColor=none;align=left;verticalAlign=middle;spacingLeft=4;spacingRight=4;overflow=hidden;points=[[0,0.5],[1,0.5]];portConstraint=eastwest;rotatable=0;whiteSpace=wrap;html=1;" parent="CWl69X-RW4L_jbVbcyJP-29" vertex="1">
          <mxGeometry y="90" width="140" height="30" as="geometry" />
        </mxCell>
        <mxCell id="CWl69X-RW4L_jbVbcyJP-33" value="Extras" style="swimlane;fontStyle=0;childLayout=stackLayout;horizontal=1;startSize=30;horizontalStack=0;resizeParent=1;resizeParentMax=0;resizeLast=0;collapsible=1;marginBottom=0;whiteSpace=wrap;html=1;" parent="1" vertex="1">
          <mxGeometry x="880" y="690" width="140" height="120" as="geometry" />
        </mxCell>
        <mxCell id="CWl69X-RW4L_jbVbcyJP-34" value="id:int &amp;lt;PK&amp;gt;" style="text;strokeColor=none;fillColor=none;align=left;verticalAlign=middle;spacingLeft=4;spacingRight=4;overflow=hidden;points=[[0,0.5],[1,0.5]];portConstraint=eastwest;rotatable=0;whiteSpace=wrap;html=1;" parent="CWl69X-RW4L_jbVbcyJP-33" vertex="1">
          <mxGeometry y="30" width="140" height="30" as="geometry" />
        </mxCell>
        <mxCell id="CWl69X-RW4L_jbVbcyJP-35" value="description:String(255)" style="text;strokeColor=none;fillColor=none;align=left;verticalAlign=middle;spacingLeft=4;spacingRight=4;overflow=hidden;points=[[0,0.5],[1,0.5]];portConstraint=eastwest;rotatable=0;whiteSpace=wrap;html=1;" parent="CWl69X-RW4L_jbVbcyJP-33" vertex="1">
          <mxGeometry y="60" width="140" height="30" as="geometry" />
        </mxCell>
        <mxCell id="CWl69X-RW4L_jbVbcyJP-36" value="price:double" style="text;strokeColor=none;fillColor=none;align=left;verticalAlign=middle;spacingLeft=4;spacingRight=4;overflow=hidden;points=[[0,0.5],[1,0.5]];portConstraint=eastwest;rotatable=0;whiteSpace=wrap;html=1;" parent="CWl69X-RW4L_jbVbcyJP-33" vertex="1">
          <mxGeometry y="90" width="140" height="30" as="geometry" />
        </mxCell>
        <mxCell id="CWl69X-RW4L_jbVbcyJP-37" value="Aircrafts" style="swimlane;fontStyle=0;childLayout=stackLayout;horizontal=1;startSize=30;horizontalStack=0;resizeParent=1;resizeParentMax=0;resizeLast=0;collapsible=1;marginBottom=0;whiteSpace=wrap;html=1;" parent="1" vertex="1">
          <mxGeometry x="120" y="540" width="180" height="150" as="geometry" />
        </mxCell>
        <mxCell id="CWl69X-RW4L_jbVbcyJP-38" value="id:int &amp;lt;PK&amp;gt;" style="text;strokeColor=none;fillColor=none;align=left;verticalAlign=middle;spacingLeft=4;spacingRight=4;overflow=hidden;points=[[0,0.5],[1,0.5]];portConstraint=eastwest;rotatable=0;whiteSpace=wrap;html=1;" parent="CWl69X-RW4L_jbVbcyJP-37" vertex="1">
          <mxGeometry y="30" width="180" height="30" as="geometry" />
        </mxCell>
        <mxCell id="CWl69X-RW4L_jbVbcyJP-39" value="model:String(100)" style="text;strokeColor=none;fillColor=none;align=left;verticalAlign=middle;spacingLeft=4;spacingRight=4;overflow=hidden;points=[[0,0.5],[1,0.5]];portConstraint=eastwest;rotatable=0;whiteSpace=wrap;html=1;" parent="CWl69X-RW4L_jbVbcyJP-37" vertex="1">
          <mxGeometry y="60" width="180" height="30" as="geometry" />
        </mxCell>
        <mxCell id="CWl69X-RW4L_jbVbcyJP-44" value="seats_capacity:int" style="text;strokeColor=none;fillColor=none;align=left;verticalAlign=middle;spacingLeft=4;spacingRight=4;overflow=hidden;points=[[0,0.5],[1,0.5]];portConstraint=eastwest;rotatable=0;whiteSpace=wrap;html=1;" parent="CWl69X-RW4L_jbVbcyJP-37" vertex="1">
          <mxGeometry y="90" width="180" height="30" as="geometry" />
        </mxCell>
        <mxCell id="CWl69X-RW4L_jbVbcyJP-40" value="owner_name:String(255) &amp;lt;FK&amp;gt;" style="text;strokeColor=none;fillColor=none;align=left;verticalAlign=middle;spacingLeft=4;spacingRight=4;overflow=hidden;points=[[0,0.5],[1,0.5]];portConstraint=eastwest;rotatable=0;whiteSpace=wrap;html=1;" parent="CWl69X-RW4L_jbVbcyJP-37" vertex="1">
          <mxGeometry y="120" width="180" height="30" as="geometry" />
        </mxCell>
        <mxCell id="CWl69X-RW4L_jbVbcyJP-54" value="" style="endArrow=classic;html=1;rounded=0;exitX=1;exitY=0.295;exitDx=0;exitDy=0;exitPerimeter=0;entryX=1;entryY=0.5;entryDx=0;entryDy=0;" parent="1" source="CWl69X-RW4L_jbVbcyJP-7" target="CWl69X-RW4L_jbVbcyJP-18" edge="1">
          <mxGeometry width="50" height="50" relative="1" as="geometry">
            <mxPoint x="580" y="255" as="sourcePoint" />
            <mxPoint x="630" y="205" as="targetPoint" />
            <Array as="points">
              <mxPoint x="630" y="290" />
              <mxPoint x="630" y="70" />
            </Array>
          </mxGeometry>
        </mxCell>
        <mxCell id="CWl69X-RW4L_jbVbcyJP-55" value="" style="endArrow=classic;html=1;rounded=0;entryX=1.002;entryY=0.286;entryDx=0;entryDy=0;entryPerimeter=0;exitX=0.989;exitY=0.75;exitDx=0;exitDy=0;exitPerimeter=0;" parent="1" source="CWl69X-RW4L_jbVbcyJP-8" target="CWl69X-RW4L_jbVbcyJP-18" edge="1">
          <mxGeometry width="50" height="50" relative="1" as="geometry">
            <mxPoint x="553" y="350" as="sourcePoint" />
            <mxPoint x="554" y="64" as="targetPoint" />
            <Array as="points">
              <mxPoint x="640" y="333" />
              <mxPoint x="640" y="64" />
            </Array>
          </mxGeometry>
        </mxCell>
        <mxCell id="CWl69X-RW4L_jbVbcyJP-56" value="" style="endArrow=classic;html=1;rounded=0;exitX=-0.021;exitY=0.233;exitDx=0;exitDy=0;entryX=-0.005;entryY=0.2;entryDx=0;entryDy=0;exitPerimeter=0;entryPerimeter=0;" parent="1" source="CWl69X-RW4L_jbVbcyJP-40" target="CWl69X-RW4L_jbVbcyJP-2" edge="1">
          <mxGeometry width="50" height="50" relative="1" as="geometry">
            <mxPoint x="140" y="670.01" as="sourcePoint" />
            <mxPoint x="-200" y="270" as="targetPoint" />
            <Array as="points">
              <mxPoint x="-210" y="667" />
              <mxPoint x="-210" y="270" />
            </Array>
          </mxGeometry>
        </mxCell>
        <mxCell id="CWl69X-RW4L_jbVbcyJP-57" value="" style="endArrow=classic;html=1;rounded=0;exitX=0;exitY=0.5;exitDx=0;exitDy=0;entryX=1;entryY=0.5;entryDx=0;entryDy=0;" parent="1" source="CWl69X-RW4L_jbVbcyJP-32" target="CWl69X-RW4L_jbVbcyJP-38" edge="1">
          <mxGeometry width="50" height="50" relative="1" as="geometry">
            <mxPoint x="350" y="600" as="sourcePoint" />
            <mxPoint x="400" y="550" as="targetPoint" />
            <Array as="points">
              <mxPoint x="500" y="705" />
              <mxPoint x="500" y="585" />
            </Array>
          </mxGeometry>
        </mxCell>
        <mxCell id="CWl69X-RW4L_jbVbcyJP-59" value="" style="endArrow=classic;html=1;rounded=0;exitX=0;exitY=0.5;exitDx=0;exitDy=0;entryX=1.007;entryY=0.3;entryDx=0;entryDy=0;entryPerimeter=0;" parent="1" source="CWl69X-RW4L_jbVbcyJP-58" target="CWl69X-RW4L_jbVbcyJP-38" edge="1">
          <mxGeometry width="50" height="50" relative="1" as="geometry">
            <mxPoint x="480" y="480" as="sourcePoint" />
            <mxPoint x="530" y="430" as="targetPoint" />
            <Array as="points">
              <mxPoint x="680" y="430" />
              <mxPoint x="680" y="580" />
            </Array>
          </mxGeometry>
        </mxCell>
        <mxCell id="CWl69X-RW4L_jbVbcyJP-60" value="" style="endArrow=classic;html=1;rounded=0;exitX=0;exitY=0.5;exitDx=0;exitDy=0;entryX=0.002;entryY=0.652;entryDx=0;entryDy=0;entryPerimeter=0;" parent="1" source="CWl69X-RW4L_jbVbcyJP-24" target="CWl69X-RW4L_jbVbcyJP-8" edge="1">
          <mxGeometry width="50" height="50" relative="1" as="geometry">
            <mxPoint x="540" y="460" as="sourcePoint" />
            <mxPoint x="414" y="295" as="targetPoint" />
            <Array as="points">
              <mxPoint x="390" y="400" />
              <mxPoint x="390" y="330" />
            </Array>
          </mxGeometry>
        </mxCell>
        <mxCell id="CWl69X-RW4L_jbVbcyJP-61" value="Uses" style="swimlane;fontStyle=0;childLayout=stackLayout;horizontal=1;startSize=30;horizontalStack=0;resizeParent=1;resizeParentMax=0;resizeLast=0;collapsible=1;marginBottom=0;whiteSpace=wrap;html=1;" parent="1" vertex="1">
          <mxGeometry x="90" y="200" width="190" height="150" as="geometry" />
        </mxCell>
        <mxCell id="CWl69X-RW4L_jbVbcyJP-62" value="id:int &amp;lt;PK&amp;gt;" style="text;strokeColor=none;fillColor=none;align=left;verticalAlign=middle;spacingLeft=4;spacingRight=4;overflow=hidden;points=[[0,0.5],[1,0.5]];portConstraint=eastwest;rotatable=0;whiteSpace=wrap;html=1;" parent="CWl69X-RW4L_jbVbcyJP-61" vertex="1">
          <mxGeometry y="30" width="190" height="30" as="geometry" />
        </mxCell>
        <mxCell id="CWl69X-RW4L_jbVbcyJP-63" value="aniline_name:String(255)&amp;lt;FK&amp;gt;" style="text;strokeColor=none;fillColor=none;align=left;verticalAlign=middle;spacingLeft=4;spacingRight=4;overflow=hidden;points=[[0,0.5],[1,0.5]];portConstraint=eastwest;rotatable=0;whiteSpace=wrap;html=1;" parent="CWl69X-RW4L_jbVbcyJP-61" vertex="1">
          <mxGeometry y="60" width="190" height="30" as="geometry" />
        </mxCell>
        <mxCell id="CWl69X-RW4L_jbVbcyJP-64" value="route_departure:int&amp;lt;FK&amp;gt;" style="text;strokeColor=none;fillColor=none;align=left;verticalAlign=middle;spacingLeft=4;spacingRight=4;overflow=hidden;points=[[0,0.5],[1,0.5]];portConstraint=eastwest;rotatable=0;whiteSpace=wrap;html=1;" parent="CWl69X-RW4L_jbVbcyJP-61" vertex="1">
          <mxGeometry y="90" width="190" height="30" as="geometry" />
        </mxCell>
        <mxCell id="I97rUNE9fbDE2aKJuluB-3" value="route_destination:int&amp;lt;FK&amp;gt;" style="text;strokeColor=none;fillColor=none;align=left;verticalAlign=middle;spacingLeft=4;spacingRight=4;overflow=hidden;points=[[0,0.5],[1,0.5]];portConstraint=eastwest;rotatable=0;whiteSpace=wrap;html=1;" parent="CWl69X-RW4L_jbVbcyJP-61" vertex="1">
          <mxGeometry y="120" width="190" height="30" as="geometry" />
        </mxCell>
        <mxCell id="CWl69X-RW4L_jbVbcyJP-65" value="" style="endArrow=classic;html=1;rounded=0;exitX=0;exitY=0.5;exitDx=0;exitDy=0;entryX=1.004;entryY=0.278;entryDx=0;entryDy=0;entryPerimeter=0;" parent="1" source="CWl69X-RW4L_jbVbcyJP-63" target="CWl69X-RW4L_jbVbcyJP-2" edge="1">
          <mxGeometry width="50" height="50" relative="1" as="geometry">
            <mxPoint x="190" y="460" as="sourcePoint" />
            <mxPoint x="10" y="280" as="targetPoint" />
          </mxGeometry>
        </mxCell>
        <mxCell id="CWl69X-RW4L_jbVbcyJP-66" value="" style="endArrow=classic;html=1;rounded=0;entryX=0.007;entryY=0.267;entryDx=0;entryDy=0;entryPerimeter=0;exitX=0.982;exitY=0.306;exitDx=0;exitDy=0;exitPerimeter=0;" parent="1" source="CWl69X-RW4L_jbVbcyJP-64" edge="1">
          <mxGeometry width="50" height="50" relative="1" as="geometry">
            <mxPoint x="280" y="305" as="sourcePoint" />
            <mxPoint x="414.98" y="288.01" as="targetPoint" />
          </mxGeometry>
        </mxCell>
        <mxCell id="CWl69X-RW4L_jbVbcyJP-78" value="" style="endArrow=classic;html=1;rounded=0;exitX=0.021;exitY=0.2;exitDx=0;exitDy=0;exitPerimeter=0;entryX=0.971;entryY=0.733;entryDx=0;entryDy=0;entryPerimeter=0;" parent="1" source="CWl69X-RW4L_jbVbcyJP-15" target="CWl69X-RW4L_jbVbcyJP-22" edge="1">
          <mxGeometry width="50" height="50" relative="1" as="geometry">
            <mxPoint x="910" y="530" as="sourcePoint" />
            <mxPoint x="960" y="480" as="targetPoint" />
          </mxGeometry>
        </mxCell>
        <mxCell id="CWl69X-RW4L_jbVbcyJP-81" value="Bookings" style="swimlane;fontStyle=0;childLayout=stackLayout;horizontal=1;startSize=30;horizontalStack=0;resizeParent=1;resizeParentMax=0;resizeLast=0;collapsible=1;marginBottom=0;whiteSpace=wrap;html=1;" parent="1" vertex="1">
          <mxGeometry x="1101" y="460" width="169" height="180" as="geometry" />
        </mxCell>
        <mxCell id="CWl69X-RW4L_jbVbcyJP-82" value="id:int&amp;lt;PK&amp;gt;" style="text;strokeColor=none;fillColor=none;align=left;verticalAlign=middle;spacingLeft=4;spacingRight=4;overflow=hidden;points=[[0,0.5],[1,0.5]];portConstraint=eastwest;rotatable=0;whiteSpace=wrap;html=1;" parent="CWl69X-RW4L_jbVbcyJP-81" vertex="1">
          <mxGeometry y="30" width="169" height="30" as="geometry" />
        </mxCell>
        <mxCell id="CWl69X-RW4L_jbVbcyJP-84" value="ticket_code:String(255) &amp;lt;FK&amp;gt;" style="text;strokeColor=none;fillColor=none;align=left;verticalAlign=middle;spacingLeft=4;spacingRight=4;overflow=hidden;points=[[0,0.5],[1,0.5]];portConstraint=eastwest;rotatable=0;whiteSpace=wrap;html=1;" parent="CWl69X-RW4L_jbVbcyJP-81" vertex="1">
          <mxGeometry y="60" width="169" height="30" as="geometry" />
        </mxCell>
        <mxCell id="CWl69X-RW4L_jbVbcyJP-83" value="seat_id:int &amp;lt;FK&amp;gt;" style="text;strokeColor=none;fillColor=none;align=left;verticalAlign=middle;spacingLeft=4;spacingRight=4;overflow=hidden;points=[[0,0.5],[1,0.5]];portConstraint=eastwest;rotatable=0;whiteSpace=wrap;html=1;" parent="CWl69X-RW4L_jbVbcyJP-81" vertex="1">
          <mxGeometry y="90" width="169" height="30" as="geometry" />
        </mxCell>
        <mxCell id="CWl69X-RW4L_jbVbcyJP-85" value="trip_id:int &amp;lt;FK&amp;gt;" style="text;strokeColor=none;fillColor=none;align=left;verticalAlign=middle;spacingLeft=4;spacingRight=4;overflow=hidden;points=[[0,0.5],[1,0.5]];portConstraint=eastwest;rotatable=0;whiteSpace=wrap;html=1;" parent="CWl69X-RW4L_jbVbcyJP-81" vertex="1">
          <mxGeometry y="120" width="169" height="30" as="geometry" />
        </mxCell>
        <mxCell id="CWl69X-RW4L_jbVbcyJP-86" value="extras_id:int &amp;lt;FK&amp;gt;" style="text;strokeColor=none;fillColor=none;align=left;verticalAlign=middle;spacingLeft=4;spacingRight=4;overflow=hidden;points=[[0,0.5],[1,0.5]];portConstraint=eastwest;rotatable=0;whiteSpace=wrap;html=1;" parent="CWl69X-RW4L_jbVbcyJP-81" vertex="1">
          <mxGeometry y="150" width="169" height="30" as="geometry" />
        </mxCell>
        <mxCell id="CWl69X-RW4L_jbVbcyJP-87" value="" style="endArrow=classic;html=1;rounded=0;exitX=0.01;exitY=0.593;exitDx=0;exitDy=0;exitPerimeter=0;entryX=1;entryY=0.5;entryDx=0;entryDy=0;" parent="1" source="CWl69X-RW4L_jbVbcyJP-83" target="CWl69X-RW4L_jbVbcyJP-30" edge="1">
          <mxGeometry width="50" height="50" relative="1" as="geometry">
            <mxPoint x="930" y="610" as="sourcePoint" />
            <mxPoint x="980" y="560" as="targetPoint" />
            <Array as="points">
              <mxPoint x="770" y="565" />
              <mxPoint x="770" y="645" />
            </Array>
          </mxGeometry>
        </mxCell>
        <mxCell id="CWl69X-RW4L_jbVbcyJP-88" value="" style="endArrow=classic;html=1;rounded=0;exitX=0;exitY=0.5;exitDx=0;exitDy=0;entryX=1;entryY=0.5;entryDx=0;entryDy=0;" parent="1" source="CWl69X-RW4L_jbVbcyJP-84" target="CWl69X-RW4L_jbVbcyJP-14" edge="1">
          <mxGeometry width="50" height="50" relative="1" as="geometry">
            <mxPoint x="1010" y="540" as="sourcePoint" />
            <mxPoint x="1200" y="230" as="targetPoint" />
            <Array as="points">
              <mxPoint x="1070" y="535" />
              <mxPoint x="1070" y="205" />
            </Array>
          </mxGeometry>
        </mxCell>
        <mxCell id="CWl69X-RW4L_jbVbcyJP-89" value="" style="endArrow=classic;html=1;rounded=0;exitX=1;exitY=0.5;exitDx=0;exitDy=0;entryX=0;entryY=0.5;entryDx=0;entryDy=0;" parent="1" source="CWl69X-RW4L_jbVbcyJP-79" target="CWl69X-RW4L_jbVbcyJP-10" edge="1">
          <mxGeometry width="50" height="50" relative="1" as="geometry">
            <mxPoint x="1250" y="490" as="sourcePoint" />
            <mxPoint x="1300" y="440" as="targetPoint" />
            <Array as="points">
              <mxPoint x="1610" y="580" />
              <mxPoint x="1610" y="295" />
            </Array>
          </mxGeometry>
        </mxCell>
        <mxCell id="CWl69X-RW4L_jbVbcyJP-90" value="" style="endArrow=classic;html=1;rounded=0;exitX=1;exitY=0.5;exitDx=0;exitDy=0;entryX=0;entryY=0.5;entryDx=0;entryDy=0;" parent="1" source="CWl69X-RW4L_jbVbcyJP-85" target="CWl69X-RW4L_jbVbcyJP-26" edge="1">
          <mxGeometry width="50" height="50" relative="1" as="geometry">
            <mxPoint x="1400" y="610" as="sourcePoint" />
            <mxPoint x="1290" y="440" as="targetPoint" />
            <Array as="points">
              <mxPoint x="1300" y="595" />
              <mxPoint x="1300" y="520" />
            </Array>
          </mxGeometry>
        </mxCell>
        <mxCell id="CWl69X-RW4L_jbVbcyJP-91" value="" style="endArrow=classic;html=1;rounded=0;exitX=-0.004;exitY=0.651;exitDx=0;exitDy=0;exitPerimeter=0;entryX=0.982;entryY=0.619;entryDx=0;entryDy=0;entryPerimeter=0;" parent="1" source="CWl69X-RW4L_jbVbcyJP-86" target="CWl69X-RW4L_jbVbcyJP-34" edge="1">
          <mxGeometry width="50" height="50" relative="1" as="geometry">
            <mxPoint x="1060" y="620" as="sourcePoint" />
            <mxPoint x="1110" y="570" as="targetPoint" />
            <Array as="points">
              <mxPoint x="1080" y="630" />
              <mxPoint x="1080" y="740" />
            </Array>
          </mxGeometry>
        </mxCell>
        <mxCell id="I97rUNE9fbDE2aKJuluB-4" value="" style="endArrow=classic;html=1;rounded=0;exitX=0.989;exitY=0.267;exitDx=0;exitDy=0;exitPerimeter=0;entryX=0.007;entryY=0.4;entryDx=0;entryDy=0;entryPerimeter=0;" parent="1" source="I97rUNE9fbDE2aKJuluB-3" target="CWl69X-RW4L_jbVbcyJP-8" edge="1">
          <mxGeometry width="50" height="50" relative="1" as="geometry">
            <mxPoint x="280" y="330" as="sourcePoint" />
            <mxPoint x="410" y="320" as="targetPoint" />
          </mxGeometry>
        </mxCell>
        <mxCell id="I97rUNE9fbDE2aKJuluB-7" value="" style="endArrow=classic;html=1;rounded=0;entryX=0.018;entryY=0.776;entryDx=0;entryDy=0;entryPerimeter=0;" parent="1" source="I97rUNE9fbDE2aKJuluB-5" target="CWl69X-RW4L_jbVbcyJP-7" edge="1">
          <mxGeometry width="50" height="50" relative="1" as="geometry">
            <mxPoint x="690" y="380" as="sourcePoint" />
            <mxPoint x="414" y="310" as="targetPoint" />
            <Array as="points">
              <mxPoint x="370" y="370" />
              <mxPoint x="370" y="303" />
            </Array>
          </mxGeometry>
        </mxCell>
      </root>
    </mxGraphModel>
  </diagram>
</mxfile>
